<?xml version="1.0" standalone="no"?>
<!DOCTYPE svg PUBLIC "-//W3C//DTD SVG 20010904//EN"
 "http://www.w3.org/TR/2001/REC-SVG-20010904/DTD/svg10.dtd">
<svg version="1.0" xmlns="http://www.w3.org/2000/svg"
 width="1250.000000pt" height="1305.000000pt" viewBox="0 0 1250.000000 1305.000000"
 preserveAspectRatio="xMidYMid meet">
<metadata>
Created by potrace 1.13, written by Peter Selinger 2001-2015
</metadata>
<g transform="translate(0.000000,1305.000000) scale(0.100000,-0.100000)"
fill="#000000" stroke="none">
<path d="M5316 11251 c-3 -5 -45 -12 -93 -16 -124 -9 -404 -50 -558 -80 -1067
-208 -2074 -737 -2841 -1492 -176 -173 -271 -273 -375 -398 -736 -878 -1193
-1959 -1299 -3075 -7 -69 -16 -126 -21 -128 -12 -5 -12 -849 0 -854 5 -1 14
-59 21 -128 107 -1128 565 -2207 1309 -3090 206 -245 569 -590 861 -821 369
-291 990 -638 1420 -795 524 -190 920 -283 1475 -346 150 -17 922 -17 1065 0
362 43 597 85 875 157 829 213 1599 614 2255 1174 167 142 469 444 613 613
333 389 630 854 842 1317 259 569 415 1146 487 1801 18 160 18 935 0 1090 -73
637 -215 1177 -452 1720 -52 119 -198 412 -234 468 -14 23 -26 44 -26 46 0 10
-126 215 -203 331 -549 824 -1305 1491 -2180 1924 -393 194 -730 319 -1136
421 -157 39 -427 95 -511 105 -25 3 -92 11 -150 19 -58 8 -142 18 -188 21 -45
4 -85 11 -88 16 -7 12 -861 12 -868 0z m953 -206 c411 -41 808 -125 1183 -248
477 -158 977 -407 1385 -690 476 -331 923 -762 1266 -1220 558 -744 920 -1638
1037 -2552 61 -477 57 -1015 -11 -1485 -145 -1011 -564 -1939 -1238 -2740
-134 -160 -460 -485 -621 -622 -638 -538 -1360 -914 -2145 -1118 -952 -248
-1959 -234 -2902 40 -631 182 -1221 479 -1752 880 -220 167 -369 297 -576 505
-273 273 -459 500 -670 815 -509 761 -799 1577 -897 2520 -18 169 -17 832 0
1000 48 462 126 826 261 1230 388 1156 1147 2141 2167 2813 791 522 1679 820
2639 887 181 12 689 4 874 -15z"/>
<path d="M6210 10920 c-191 -30 -300 -138 -300 -296 0 -29 5 -65 11 -81 34
-90 156 -148 399 -188 263 -43 300 -61 300 -146 0 -39 -43 -83 -96 -98 -65
-18 -231 -13 -320 9 -144 37 -227 91 -226 147 0 56 -22 41 -90 -63 -37 -58
-68 -108 -68 -111 0 -3 9 -3 19 0 11 2 32 -4 48 -15 105 -72 250 -119 419
-138 201 -22 349 13 439 104 58 59 75 103 75 197 -1 169 -95 236 -405 289
-205 35 -249 45 -281 67 -32 21 -37 45 -20 88 24 57 85 80 211 79 184 -2 382
-81 397 -158 1 -11 7 -20 13 -20 11 -1 136 176 129 183 -2 2 -13 5 -23 6 -10
1 -66 24 -122 53 -57 29 -139 61 -181 71 -91 24 -250 33 -328 21z"/>
<path d="M5026 10899 c-71 -11 -132 -22 -135 -25 -3 -3 2 -10 12 -15 9 -6 17
-17 17 -25 0 -36 -262 -920 -275 -930 -23 -17 -18 -37 8 -31 12 3 64 11 115
18 61 8 92 16 92 25 0 7 -5 14 -11 16 -8 3 -1 40 22 116 27 90 38 114 54 117
25 6 393 55 410 55 12 0 135 -182 135 -200 0 -4 -5 -10 -12 -12 -6 -2 -9 -9
-5 -14 4 -7 47 -5 127 6 115 16 151 27 121 38 -21 7 -27 16 -295 437 -225 353
-253 402 -240 416 8 8 14 19 14 22 0 8 5 9 -154 -14z m128 -383 c48 -76 83
-142 79 -146 -10 -8 -273 -44 -279 -38 -3 4 74 280 91 327 8 19 10 16 109
-143z"/>
<path d="M7290 10746 c0 -4 5 -15 11 -25 12 -18 -20 -100 -292 -763 -27 -68
-35 -78 -56 -78 -49 0 -15 -23 102 -70 75 -30 121 -44 124 -37 2 6 -1 13 -7
15 -7 2 -12 10 -12 19 0 16 127 334 139 345 9 10 531 -203 531 -217 0 -6 -30
-85 -68 -175 -52 -127 -72 -166 -87 -168 -46 -9 -30 -22 87 -70 122 -50 154
-56 124 -23 -15 16 -3 50 147 418 89 220 168 408 176 416 7 9 19 13 27 10 8
-3 14 1 14 8 0 14 -238 114 -248 104 -3 -3 2 -13 10 -22 15 -17 11 -31 -45
-170 -33 -84 -66 -153 -72 -153 -15 0 -508 200 -519 211 -5 4 15 68 49 151 61
152 71 170 89 166 6 -2 13 1 15 7 1 5 -42 28 -98 51 -115 49 -141 58 -141 50z"/>
<path d="M4117 10627 c-4 -10 -38 -16 -124 -20 -186 -10 -323 -55 -458 -152
-188 -134 -275 -347 -219 -536 75 -253 281 -386 542 -350 219 31 419 149 527
311 26 38 54 74 63 80 15 9 15 11 2 20 -180 116 -222 134 -188 80 30 -47 -99
-208 -214 -266 -59 -30 -186 -64 -239 -64 -63 0 -136 20 -179 49 -89 59 -158
209 -147 316 18 180 233 336 467 339 87 1 130 -8 130 -29 0 -30 29 -15 35 18
15 93 25 165 25 190 0 28 -14 37 -23 14z"/>
<path d="M5475 9774 c-1053 -67 -1922 -452 -2668 -1183 -715 -700 -1117 -1495
-1236 -2441 -107 -847 25 -1693 375 -2405 195 -398 444 -743 793 -1099 354
-360 691 -611 1101 -820 486 -248 979 -383 1560 -427 198 -15 658 -6 840 15
745 90 1366 333 1950 764 642 475 1177 1153 1449 1840 258 650 346 1405 251
2151 -96 743 -382 1417 -856 2011 -141 177 -518 554 -693 693 -659 524 -1322
796 -2166 887 -102 11 -592 21 -700 14z m601 -44 c871 -68 1611 -366 2283
-918 170 -141 503 -477 633 -640 610 -766 897 -1596 898 -2602 0 -908 -266
-1730 -784 -2424 -578 -773 -1342 -1318 -2190 -1561 -742 -213 -1640 -211
-2386 5 -612 176 -1193 521 -1679 995 -529 516 -882 1070 -1085 1704 -192 596
-244 1298 -145 1961 124 830 483 1552 1091 2194 746 786 1666 1222 2723 1289
124 8 524 6 641 -3z"/>
<path d="M5470 9354 c-393 -33 -632 -79 -945 -181 -237 -77 -655 -268 -640
-293 3 -5 0 -12 -6 -16 -8 -4 -9 -3 -5 4 14 23 -12 11 -100 -44 -436 -274
-827 -641 -1139 -1069 -484 -665 -723 -1504 -675 -2370 22 -404 79 -708 199
-1057 136 -396 323 -732 610 -1093 127 -160 454 -486 621 -619 587 -467 1214
-720 1963 -792 207 -20 684 -14 862 10 733 98 1307 342 1870 794 145 116 457
426 581 575 322 391 552 818 688 1282 218 742 203 1594 -39 2320 -96 287 -246
592 -417 848 -32 48 -63 85 -67 82 -5 -2 -15 3 -22 13 -13 15 -12 16 4 3 28
-22 20 -1 -24 56 -22 29 -44 51 -48 48 -5 -2 -15 3 -22 13 -13 15 -12 16 4 3
70 -55 -102 155 -273 332 -120 125 -337 323 -346 315 -2 -3 39 -44 93 -91 54
-47 132 -121 173 -164 67 -69 64 -67 -25 18 -55 52 -135 126 -177 163 -43 38
-76 72 -73 76 6 9 -156 140 -171 140 -5 -1 2 -10 15 -21 17 -13 25 -32 27 -62
l4 -42 -26 55 c-15 30 -27 61 -27 68 0 15 -117 96 -267 187 -435 264 -909 424
-1450 490 -128 16 -619 28 -730 19z m681 -209 c108 -254 101 -235 85 -235 -8
0 -44 53 -81 118 -37 64 -94 161 -126 215 l-58 98 50 -3 50 -3 80 -190z m249
149 c139 -23 262 -52 230 -53 -8 0 -44 6 -80 14 -36 8 -68 14 -72 15 -5 0 -8
-81 -8 -180 l0 -180 -44 0 c-34 0 -46 4 -50 18 -2 9 -21 96 -41 192 -21 96
-39 177 -41 179 -16 17 -4 -50 66 -384 44 -209 80 -382 80 -385 -1 -8 -244
549 -336 769 l-14 34 82 -7 c46 -4 148 -19 228 -32z m-1362 -11 l-28 -4 0
-185 0 -184 -43 0 -44 0 -32 153 c-45 211 -50 189 44 209 44 9 91 16 105 16
23 -1 23 -1 -2 -5z m-198 -50 c0 -9 32 -167 70 -351 39 -184 69 -336 67 -338
-1 -2 -66 144 -143 323 -78 180 -146 329 -152 331 -6 2 16 -60 49 -137 32 -77
59 -143 59 -146 0 -3 -6 -5 -12 -5 -7 0 -26 24 -42 53 -16 28 -53 91 -81 139
l-52 86 41 11 c23 6 73 20 111 30 87 25 85 24 85 4z m1210 -469 l-1 -292 23
-6 c13 -3 48 -6 79 -6 30 0 103 -9 161 -19 240 -43 445 -128 608 -250 42 -31
64 -41 93 -41 35 0 37 -1 26 -21 -9 -19 -6 -27 28 -63 72 -74 84 -90 135 -166
139 -209 213 -479 233 -852 l6 -118 -520 0 -520 0 -5 33 c-3 17 -8 70 -11 117
-19 284 -47 363 -164 473 -45 42 -136 97 -161 97 -7 0 -9 -241 -8 -766 l3
-766 65 -24 c36 -13 66 -24 68 -24 1 0 2 81 2 180 l0 180 25 0 c28 0 28 2 76
-235 18 -88 36 -164 41 -169 14 -17 9 13 -32 204 -22 101 -40 186 -40 187 0 2
52 3 115 3 l115 0 2 -225 3 -226 123 -49 c464 -187 702 -427 791 -800 59 -243
75 -438 68 -803 -7 -388 -40 -588 -126 -771 -161 -345 -437 -549 -917 -677
-82 -22 -338 -68 -381 -69 -2 0 -3 -126 -3 -280 l0 -280 -255 0 -255 0 0 280
c0 238 -2 280 -14 280 -8 0 -68 7 -133 15 -488 64 -834 237 -1056 529 -161
211 -257 556 -257 922 l0 104 331 0 c307 0 331 1 325 17 -6 15 -189 338 -238
421 l-20 33 67 -3 67 -3 97 -229 c54 -127 102 -231 108 -233 7 -3 -33 100 -88
227 -54 127 -99 233 -99 236 0 2 53 4 118 4 l119 0 48 -235 c27 -129 52 -235
57 -235 4 0 8 2 8 5 0 8 -90 429 -96 448 -5 15 5 17 109 17 l115 0 5 -277 c4
-178 13 -335 25 -436 18 -146 22 -164 60 -241 31 -62 57 -98 102 -139 57 -53
154 -109 213 -123 l27 -6 0 623 -1 624 -76 58 -76 57 77 0 76 0 0 203 0 202
-243 84 c-511 176 -680 262 -853 435 -99 100 -144 169 -197 302 -66 165 -93
309 -107 567 -20 377 28 675 151 919 48 95 108 189 152 235 23 25 28 37 23 57
-6 24 -4 26 23 26 16 0 33 5 36 10 4 6 -7 10 -27 10 l-33 0 58 58 58 57 19
-25 c14 -17 20 -20 20 -9 0 8 -5 20 -12 27 -9 9 -3 12 28 12 30 0 55 10 104
43 193 129 430 221 665 257 39 6 85 13 103 16 l32 5 0 295 0 294 256 -2 255
-3 -1 -291z m-2405 -674 l59 -60 -124 0 -123 0 24 28 c61 69 84 92 94 92 6 0
37 -27 70 -60z m4248 4 c16 -31 26 -58 24 -61 -2 -2 -53 -2 -112 -1 l-108 3
74 57 c41 32 79 58 84 58 6 0 23 -25 38 -56z m262 -4 l59 -60 -129 0 -129 0
59 60 c33 33 64 60 70 60 6 0 37 -27 70 -60z m-4946 -415 c77 -184 141 -337
141 -340 0 -3 -6 -5 -13 -5 -9 0 -376 623 -395 672 -2 4 25 8 61 8 l64 0 142
-335z m128 270 c6 -33 55 -265 107 -515 53 -250 96 -459 96 -465 -1 -12 -53
106 -280 633 l-178 413 121 -3 121 -3 13 -60z m233 -275 l0 -340 -43 0 -43 0
-69 323 c-38 177 -70 330 -73 340 -4 15 6 17 112 17 l116 0 0 -340z m4142 17
c167 -394 153 -357 136 -357 -9 0 -93 137 -206 335 -106 184 -192 337 -192
340 0 3 28 5 63 5 l62 0 137 -323z m122 306 c11 -37 216 -1027 213 -1030 -3
-2 -233 526 -422 967 l-34 80 119 0 c104 0 119 -2 124 -17z m246 -323 l0 -340
-45 0 c-25 0 -45 3 -45 6 0 4 -31 154 -70 333 -38 180 -70 330 -70 334 0 4 52
7 115 7 l115 0 0 -340z m-4747 -1166 c16 -31 26 -58 24 -61 -2 -2 -54 -2 -115
-1 l-112 3 73 57 c39 31 79 57 87 57 9 1 27 -22 43 -55z m262 -4 l59 -60 -129
0 -129 0 59 60 c33 33 64 60 70 60 6 0 37 -27 70 -60z m2973 0 l53 -60 -128 0
-127 0 59 60 c33 33 66 60 75 60 9 0 39 -27 68 -60z m1275 2 c16 -29 27 -55
25 -58 -3 -2 -56 -3 -118 -2 l-113 3 74 57 c41 31 80 56 88 55 7 -1 27 -26 44
-55z m262 -2 l59 -60 -127 0 -128 0 53 60 c29 33 59 60 68 60 9 0 42 -27 75
-60z m1255 0 l30 -60 -117 0 c-74 0 -113 4 -107 9 28 29 141 111 151 111 7 0
26 -27 43 -60z m-6090 -76 c0 -6 206 -997 216 -1039 4 -15 1 -14 -9 5 -16 27
-447 1026 -447 1035 0 3 54 5 120 5 66 0 120 -3 120 -6z m4614 -510 c59 -283
106 -518 103 -520 -2 -3 -23 39 -47 93 -181 418 -393 911 -397 926 -5 15 5 17
114 17 l119 0 108 -516z m1508 51 c89 -424 113 -567 88 -524 -17 28 -420 969
-420 980 0 6 44 9 118 7 l117 -3 97 -460z m-6237 124 c77 -182 142 -335 143
-340 2 -5 -3 -9 -11 -9 -9 0 -91 134 -206 335 -105 184 -191 337 -191 340 0 3
28 5 63 5 l62 0 140 -331z m365 -9 l0 -340 -45 0 c-25 0 -45 1 -45 3 0 1 -32
148 -70 327 -38 179 -70 331 -70 338 0 9 30 12 115 12 l115 0 0 -340z m4147 0
c122 -288 150 -373 113 -334 -10 11 -368 637 -376 659 -6 14 2 16 57 13 l64
-3 142 -335z m363 0 l0 -340 -45 0 c-38 0 -45 3 -50 23 -3 12 -36 165 -74 340
l-68 317 119 0 118 0 0 -340z m1019 318 c5 -13 70 -166 144 -341 97 -228 131
-317 119 -315 -9 2 -88 130 -185 298 -92 162 -179 314 -193 338 l-25 42 66 0
c59 0 66 -2 74 -22z m374 -65 c35 -181 77 -576 63 -590 -21 -21 -37 30 -100
328 -38 178 -71 330 -73 337 -4 8 9 12 44 12 l50 0 16 -87z m-5772 -1390 c19
-21 43 -48 53 -60 l19 -23 -124 0 -123 0 59 60 c33 33 64 60 70 60 6 0 27 -17
46 -37z m1279 -23 l30 -60 -117 0 -118 1 26 19 c14 11 48 37 75 59 27 22 55
40 61 41 7 0 26 -27 43 -60z m258 0 l53 -60 -123 0 -122 0 59 60 c33 33 64 60
70 60 6 0 34 -27 63 -60z m2732 0 l30 -60 -117 0 -118 1 30 22 c16 12 50 39
75 59 25 20 51 37 57 37 7 1 26 -26 43 -59z m259 0 l52 -60 -123 0 -122 0 59
60 c33 33 64 60 71 60 6 0 34 -27 63 -60z m-4943 -420 c123 -289 151 -372 114
-334 -5 5 -94 159 -199 342 l-190 333 66 -3 66 -3 143 -335z m114 335 c0 -3
18 -90 40 -193 107 -508 179 -857 177 -859 -2 -1 -442 1012 -455 1048 -2 5 48
9 117 9 67 0 121 -2 121 -5z m250 -335 l0 -340 -45 0 c-38 0 -45 3 -50 23 -3
12 -36 165 -74 340 l-68 317 119 0 118 0 0 -340z m4144 0 c125 -294 151 -369
115 -333 -5 5 -66 108 -135 229 -125 217 -127 220 -149 332 l-22 113 24 -3
c22 -3 39 -37 167 -338z m149 168 c20 -95 66 -315 102 -488 36 -173 69 -333
74 -355 6 -21 9 -41 7 -42 -1 -2 -19 34 -38 80 -215 495 -418 969 -418 972 0
3 53 5 118 5 l118 0 37 -172z m207 -169 l0 -340 -42 3 -42 3 -42 200 c-24 110
-56 262 -72 338 l-30 137 114 0 114 0 0 -341z m1114 116 c91 -216 95 -226 83
-260 l-12 -35 -130 227 c-71 126 -138 243 -148 261 l-19 32 65 0 65 0 96 -225z
m174 162 c11 -57 9 -71 -18 -180 -53 -207 -41 -209 -142 26 -49 112 -88 207
-88 210 0 4 53 7 118 7 l119 0 11 -63z m-5960 -1552 l32 -65 -115 0 c-63 0
-115 3 -115 8 1 8 149 122 159 122 4 0 21 -29 39 -65z m254 8 c32 -32 58 -61
58 -65 0 -4 -57 -8 -127 -8 l-127 0 64 65 c35 36 67 65 69 65 3 0 31 -26 63
-57z m4256 -8 l32 -65 -122 0 c-71 0 -118 4 -112 9 24 23 157 121 163 121 4 0
21 -29 39 -65z m255 6 c32 -33 57 -62 57 -65 0 -3 -57 -6 -127 -6 l-127 0 64
65 c35 36 67 65 71 65 3 0 31 -27 62 -59z m-5038 -193 c26 -62 67 -159 91
-216 l43 -102 -70 62 c-59 53 -82 84 -152 207 -45 80 -83 148 -85 153 -2 4 25
8 61 8 l64 0 48 -112z m233 0 c12 -62 40 -195 61 -295 43 -206 47 -199 -62
-106 l-69 58 -94 219 c-52 120 -94 223 -94 227 0 5 53 9 118 9 l118 0 22 -112z
m222 -228 l0 -340 -50 36 c-28 20 -52 46 -55 57 -3 12 -30 139 -61 282 -30
143 -58 270 -61 283 -5 22 -4 22 111 22 l116 0 0 -340z m4142 18 c100 -236
134 -326 126 -335 -8 -10 -58 70 -195 309 -102 178 -187 329 -190 336 -4 9 12
12 59 12 l64 0 136 -322z m139 232 c10 -47 36 -172 58 -279 23 -106 41 -197
41 -201 0 -5 -19 -22 -42 -39 l-42 -31 -123 288 c-68 158 -130 302 -138 320
l-14 33 121 -3 122 -3 17 -85z m229 -147 l-1 -238 -50 -40 c-28 -22 -54 -38
-58 -36 -5 3 -120 518 -121 544 0 4 52 7 115 7 l115 0 0 -237z m-3269 -297
c89 -208 66 -206 -54 4 -49 85 -100 174 -113 198 l-25 42 62 -44 63 -44 67
-156z m117 63 c9 -3 35 -106 73 -288 32 -156 58 -286 56 -288 -3 -2 -186 415
-273 623 l-13 32 72 -37 c40 -21 78 -40 85 -42z m110 -44 l52 -19 0 -78 0 -78
-43 0 -43 0 -21 101 c-14 66 -17 99 -9 96 6 -2 35 -12 64 -22z m1386 -92 c9
-29 95 -448 92 -450 -1 -1 -45 98 -98 220 -53 122 -95 223 -93 226 4 3 45 13
87 20 4 0 9 -7 12 -16z"/>
<path d="M5465 7617 c-33 -17 -90 -61 -126 -97 -52 -51 -72 -81 -96 -140 -61
-147 -84 -354 -64 -560 27 -262 72 -343 255 -453 115 -70 106 -75 106 63 0 66
-2 120 -4 120 -2 0 -19 -23 -36 -51 -19 -29 -38 -48 -46 -45 -7 3 -40 26 -74
53 l-62 48 111 3 111 3 0 544 c0 300 -3 545 -7 545 -5 0 -35 -15 -68 -33z"/>
<path d="M6050 4406 c0 -622 3 -786 13 -786 6 0 41 14 75 30 135 64 257 231
269 369 5 54 1 66 -106 313 l-111 257 0 126 0 126 67 -3 66 -3 39 -185 c68
-325 76 -358 77 -320 1 27 -57 319 -93 473 -5 19 7 15 42 -16 l22 -20 0 20 c0
25 -31 117 -58 169 -37 72 -186 192 -284 229 -17 7 -18 -34 -18 -779z m229
-68 c39 -92 71 -169 71 -172 0 -3 -6 -6 -13 -6 -7 0 -43 53 -80 118 -65 115
-67 120 -67 188 1 82 -3 87 89 -128z"/>
<path d="M9010 9740 c0 -28 -508 -600 -533 -600 -10 0 -17 -4 -15 -10 2 -5
113 -107 248 -226 168 -149 246 -225 248 -241 2 -12 6 -23 10 -22 4 0 35 33
69 72 l61 72 -28 6 c-16 4 -100 70 -206 164 -99 87 -181 160 -183 162 -4 3 37
53 106 130 l38 43 123 -111 c84 -76 122 -117 122 -132 1 -18 14 -8 71 53 l69
75 -28 5 c-17 3 -74 46 -145 108 -132 117 -128 98 -40 197 47 52 54 57 70 44
10 -8 93 -81 185 -163 136 -120 168 -153 168 -175 0 -23 7 -19 69 49 65 71 79
96 46 84 -9 -4 -107 76 -264 215 -137 122 -252 221 -255 221 -3 0 -6 -9 -6
-20z"/>
<path d="M1807 9132 c-48 -48 -87 -91 -87 -95 0 -5 10 -5 21 -2 18 6 64 -36
300 -271 208 -208 277 -283 273 -296 -3 -10 -2 -18 3 -18 4 0 143 135 308 300
166 166 308 300 317 300 10 0 18 4 18 8 0 10 -123 132 -133 132 -4 0 -7 -8 -7
-18 0 -11 -95 -116 -222 -246 l-221 -228 -239 239 c-201 200 -238 242 -233
261 3 12 2 22 -3 22 -4 0 -47 -39 -95 -88z"/>
<path d="M9724 9082 c6 -19 -138 -432 -155 -442 -16 -10 -465 -33 -495 -26
-36 9 -29 -5 43 -100 57 -74 76 -89 71 -57 -3 19 -4 19 249 37 l92 7 -44 -125
c-64 -182 -72 -199 -90 -192 -8 3 -15 2 -15 -3 0 -13 131 -181 141 -181 5 0 9
11 9 24 0 18 154 472 164 483 2 2 98 10 215 18 154 11 218 12 233 4 39 -21 30
2 -33 85 -64 85 -79 99 -79 72 0 -18 -28 -24 -172 -32 l-116 -6 47 128 c39
108 50 130 69 132 20 3 16 12 -50 98 -69 90 -96 115 -84 76z"/>
<path d="M1520 8574 c-147 -40 -293 -177 -380 -358 -56 -117 -73 -192 -68
-306 3 -80 8 -105 34 -160 39 -82 108 -151 193 -193 61 -30 73 -32 171 -32 98
0 110 2 173 32 143 68 286 241 346 421 95 282 -18 530 -274 596 -72 19 -123
19 -195 0z m201 -206 c168 -99 189 -300 53 -500 -94 -138 -229 -196 -355 -153
-73 26 -134 77 -164 139 -25 51 -27 64 -23 144 3 76 9 97 41 162 50 102 113
171 190 210 57 29 68 31 138 28 59 -4 86 -10 120 -30z"/>
<path d="M10043 8126 c-125 -31 -252 -125 -303 -226 -107 -213 -6 -502 220
-628 36 -20 68 -40 72 -46 4 -6 9 -8 11 -6 4 4 84 129 99 156 5 6 -12 10 -45
10 -45 -1 -60 4 -102 35 -69 49 -111 108 -136 191 -24 79 -22 163 5 216 39 76
137 141 246 164 115 24 229 -42 292 -169 27 -55 33 -79 36 -155 4 -81 3 -91
-17 -112 -20 -21 -20 -24 -6 -30 9 -3 60 -6 112 -6 92 0 95 1 80 18 -13 14
-17 38 -17 93 0 326 -263 564 -547 495z"/>
<path d="M755 7453 c5 -10 8 -25 8 -33 1 -14 -161 -626 -204 -772 -11 -37 -27
-72 -37 -77 -9 -5 -14 -13 -10 -17 11 -10 181 -55 187 -48 3 3 0 14 -7 24 -9
16 -4 47 29 172 23 84 45 157 49 162 5 5 128 -24 277 -63 392 -105 373 -99
373 -123 0 -11 5 -18 12 -16 13 5 81 248 72 257 -3 3 -12 -3 -19 -13 -14 -18
-26 -16 -337 68 -177 47 -323 88 -325 90 -3 3 56 232 78 304 6 17 17 32 25 32
8 0 14 6 14 13 0 7 -35 21 -87 35 -105 27 -107 27 -98 5z"/>
<path d="M10780 7228 c0 -9 -5 -20 -10 -23 -6 -4 -178 -47 -383 -96 -298 -72
-376 -88 -390 -79 -11 6 -21 9 -23 7 -8 -7 39 -197 48 -197 4 0 8 6 8 14 0 8
7 17 16 20 19 7 303 76 314 76 12 0 112 -422 103 -430 -4 -4 -77 -24 -162 -44
-118 -27 -157 -33 -168 -25 -25 21 -26 1 -3 -91 20 -82 40 -125 40 -86 0 8 4
17 8 20 5 3 179 46 386 96 298 72 381 88 392 79 25 -20 26 -4 4 82 -28 113
-30 119 -39 94 -6 -15 -38 -27 -154 -56 l-147 -37 -10 37 c-5 20 -29 118 -53
218 l-44 182 146 35 c106 25 149 32 159 24 23 -19 23 -2 1 88 -21 85 -39 128
-39 92z"/>
<path d="M506 6208 c-9 -56 -19 -258 -12 -258 3 0 11 12 16 26 10 24 13 25 58
20 26 -3 184 -17 352 -31 392 -32 390 -32 390 -55 0 -10 4 -21 9 -24 11 -7 18
37 26 159 4 50 9 98 11 108 4 11 0 17 -10 17 -9 0 -16 -9 -16 -20 0 -16 -7
-20 -37 -20 -52 0 -735 59 -750 65 -7 2 -13 14 -13 25 0 32 -17 23 -24 -12z"/>
<path d="M10170 6091 c0 -94 6 -117 26 -100 11 9 35 4 105 -21 50 -18 92 -38
94 -44 2 -6 6 -83 10 -172 l6 -161 -98 -41 c-54 -22 -99 -36 -101 -31 -2 5 -8
9 -13 9 -5 0 -9 -45 -9 -100 0 -55 3 -100 7 -100 3 0 14 7 23 15 29 26 774
344 785 334 21 -20 25 -4 25 101 0 61 -2 110 -5 110 -3 0 -14 -5 -24 -12 -15
-9 -85 12 -407 126 -214 76 -393 144 -397 152 -18 32 -27 10 -27 -65z m652
-312 c-8 -8 -267 -119 -276 -119 -3 0 -6 51 -6 113 l0 114 144 -51 c80 -28
142 -54 138 -57z"/>
<path d="M610 5638 c-61 -32 -97 -81 -117 -162 -16 -67 -16 -75 16 -405 18
-185 34 -346 37 -358 5 -28 24 -30 24 -3 0 11 6 20 13 21 6 0 181 17 387 38
206 21 381 36 388 33 6 -2 12 -10 12 -18 0 -8 5 -14 10 -14 13 0 13 11 -1 145
-11 111 -22 144 -33 107 -7 -22 -17 -24 -210 -43 -87 -8 -120 -9 -125 0 -4 6
-15 98 -25 203 -27 292 -47 368 -113 430 -39 37 -73 48 -152 48 -50 0 -78 -6
-111 -22z m171 -179 c11 -5 24 -22 30 -36 10 -26 49 -377 49 -439 l0 -32 -92
-9 c-51 -5 -95 -7 -98 -5 -7 5 -39 332 -39 412 0 41 3 80 7 86 21 32 102 45
143 23z"/>
<path d="M10172 5173 c-6 -27 -13 -65 -17 -85 l-7 -37 33 5 c28 5 479 -71 553
-93 12 -3 -85 -60 -309 -180 -258 -138 -329 -173 -336 -162 -14 22 -23 0 -38
-87 -13 -79 -11 -94 12 -76 9 8 111 -7 392 -60 320 -59 383 -74 396 -91 16
-20 17 -19 28 31 26 123 25 151 -4 123 -9 -8 -521 82 -532 93 -2 2 132 78 299
169 269 148 304 164 315 150 7 -9 15 -15 17 -12 2 2 12 48 22 102 16 90 14
129 -5 99 -10 -17 -770 122 -787 144 -17 22 -22 17 -32 -33z"/>
<path d="M1398 4634 c-4 -3 -5 -11 -2 -18 3 -7 -126 -160 -286 -341 -245 -279
-294 -330 -315 -328 -14 1 -25 -1 -25 -4 0 -3 21 -64 48 -134 45 -124 64 -151
75 -109 4 15 11 18 38 14 19 -3 213 -25 432 -49 232 -25 404 -49 413 -56 27
-22 25 -1 -12 97 -41 111 -51 127 -64 103 -8 -14 -20 -14 -107 -3 -54 7 -101
13 -104 14 -11 0 -161 410 -156 424 3 7 33 45 68 84 47 55 67 71 81 66 25 -7
24 -2 -23 122 -41 111 -51 129 -61 118z m-119 -661 c28 -75 50 -137 49 -139
-5 -4 -308 32 -314 38 -6 7 195 237 207 238 4 0 29 -61 58 -137z"/>
<path d="M10104 4191 c-144 -35 -273 -183 -315 -361 -14 -62 -18 -225 -6 -282
7 -32 11 -37 35 -36 34 0 242 -89 259 -111 6 -9 14 -13 17 -10 3 3 33 70 66
150 39 92 70 152 86 165 l26 21 -64 26 c-34 14 -80 33 -100 41 l-38 16 7 -30
c4 -22 -3 -51 -27 -105 -18 -41 -34 -75 -36 -75 -2 0 -22 7 -44 16 -46 19 -56
48 -47 144 9 108 70 207 156 258 40 23 57 27 126 27 91 0 162 -26 229 -85 60
-53 81 -102 80 -190 0 -96 -29 -171 -91 -240 -53 -59 -95 -84 -129 -76 -14 4
-24 2 -24 -4 0 -18 132 -170 142 -164 5 3 7 12 4 20 -3 8 17 32 49 59 66 57
137 159 167 240 17 47 22 82 22 160 0 114 -20 180 -79 258 -94 124 -320 204
-471 168z"/>
<path d="M9413 3162 c-136 -197 -197 -278 -213 -282 -20 -5 -14 -12 53 -58 82
-56 98 -62 90 -33 -3 14 39 83 136 224 l141 205 88 -59 c48 -33 88 -64 90 -69
2 -5 -38 -67 -87 -139 -65 -92 -98 -131 -114 -133 -18 -2 -7 -14 60 -60 45
-32 85 -58 88 -58 3 0 3 11 -1 24 -4 19 12 50 81 150 47 69 89 128 93 130 6 3
149 -88 168 -106 1 -2 -59 -93 -135 -203 -97 -141 -144 -201 -160 -203 -37 -6
-36 -7 111 -105 28 -19 28 -19 26 5 -1 15 57 108 181 288 100 146 181 269 179
274 -2 6 -12 10 -23 10 -31 1 -657 436 -651 452 3 7 2 16 -3 18 -4 3 -93 -120
-198 -272z"/>
<path d="M1727 3308 c-15 -55 -25 -104 -22 -106 3 -3 16 0 29 7 33 18 108 -8
184 -63 188 -139 292 -386 222 -531 -45 -92 -139 -150 -245 -150 -87 0 -142
25 -227 103 -101 94 -164 201 -194 331 -13 57 -13 65 1 80 8 10 12 21 8 24 -9
10 -233 9 -233 -1 0 -4 8 -12 19 -19 11 -7 29 -47 46 -100 54 -174 134 -303
263 -424 130 -123 253 -175 391 -167 236 14 398 230 352 470 -34 174 -155 371
-304 496 -28 24 -93 64 -144 89 -51 24 -95 48 -98 54 -14 21 -23 4 -48 -93z"/>
<path d="M5795 1238 c-136 -16 -276 -107 -357 -232 -98 -151 -106 -353 -21
-520 31 -60 119 -155 182 -195 156 -100 389 -100 545 -1 180 115 274 331 233
534 -22 107 -59 179 -130 253 -129 135 -263 182 -452 161z m156 -68 c225 -43
381 -243 366 -470 -8 -135 -70 -247 -183 -333 -82 -62 -143 -81 -264 -81 -101
-1 -108 0 -183 36 -228 109 -326 369 -223 594 35 76 134 177 210 214 94 47
178 59 277 40z"/>
<path d="M5802 1035 c-135 -38 -242 -172 -242 -302 0 -26 -8 -41 -30 -60 -24
-20 -30 -33 -30 -64 0 -86 100 -123 155 -57 22 25 26 39 21 66 -6 40 -21 61
-53 73 -35 13 -31 79 8 157 42 85 114 141 202 157 l37 7 0 -151 0 -150 -29
-15 c-83 -43 -50 -166 44 -166 46 0 79 26 90 71 8 33 -17 85 -45 94 -19 6 -20
15 -20 161 0 85 4 154 8 154 5 0 31 -7 59 -15 99 -29 183 -132 198 -242 7 -50
6 -52 -19 -59 -34 -8 -66 -49 -66 -85 0 -15 12 -41 26 -58 54 -65 154 -28 154
58 0 31 -6 44 -30 64 -25 21 -30 33 -30 70 0 71 -27 133 -86 196 -87 94 -205
129 -322 96z"/>
</g>
</svg>
