<svg xmlns="http://www.w3.org/2000/svg" xmlns:xlink="http://www.w3.org/1999/xlink" version="1.1" x="0px" y="0px" viewBox="0 0 100 125" enable-background="new 0 0 100 100" xml:space="preserve">
<g fill="white">
<path d="M79.419,6.135H20.168c-7.988,0-14.487,6.5-14.487,14.487v59.249c0,7.988,6.5,14.488,14.487,14.488h59.251  c7.988,0,14.487-6.5,14.487-14.488V20.622C93.906,12.634,87.407,6.135,79.419,6.135z M20.168,13.259h59.251  c4.06,0,7.363,3.303,7.363,7.363v8.883H66.236c-0.011,0-0.021,0.003-0.03,0.003c-4.517-3.582-10.213-5.738-16.412-5.738  c-6.197,0-11.892,2.155-16.407,5.735H12.805v-8.883C12.805,16.562,16.108,13.259,20.168,13.259z M49.794,30.894  c10.671,0,19.354,8.683,19.354,19.353c0,10.671-8.683,19.353-19.354,19.353c-10.672,0-19.354-8.682-19.354-19.353  C30.439,39.576,39.122,30.894,49.794,30.894z M79.419,87.234H20.168c-4.06,0-7.363-3.303-7.363-7.363V36.629h14.324  c-2.404,3.985-3.813,8.634-3.813,13.618c0,14.601,11.878,26.478,26.479,26.478c14.601,0,26.478-11.877,26.478-26.478  c0-4.984-1.409-9.632-3.812-13.618h14.323v43.242C86.782,83.932,83.479,87.234,79.419,87.234z"/>
<path d="M74.938,25.47h4.916c0.443,0,0.809-0.364,0.809-0.808v-4.916c0-0.444-0.365-0.807-0.809-0.807h-4.916  c-0.444,0-0.807,0.363-0.807,0.807v4.916C74.132,25.105,74.494,25.47,74.938,25.47z"/>
<path d="M49.794,42.2c4.437,0,8.045,3.609,8.045,8.046c0,1.968,1.595,3.562,3.562,3.562s3.562-1.594,3.562-3.562  c0-8.365-6.805-15.17-15.169-15.17c-1.967,0-3.562,1.595-3.562,3.562C46.232,40.606,47.827,42.2,49.794,42.2z"/>
</g>
</svg>
