<svg xmlns="http://www.w3.org/2000/svg" xmlns:xlink="http://www.w3.org/1999/xlink" version="1.1" x="0px" y="0px" viewBox="0 0 48 60" enable-background="new 0 0 48 48" xml:space="preserve">
  <g>
    <path fill="#00724C" d="M24,48c-0.3,0-0.6-0.1-0.8-0.4C22.5,46.7,6.8,26.3,6.8,17.2C6.8,7.7,14.5,0,24,0s17.2,7.7,17.2,17.2   c0,9.1-15.7,29.5-16.4,30.4C24.6,47.9,24.3,48,24,48z M24,2C15.6,2,8.8,8.8,8.8,17.2c0,7.4,12,23.8,15.2,28.1   c3.2-4.3,15.2-20.8,15.2-28.1C39.2,8.8,32.4,2,24,2z"/>
    <path fill="#00724C" d="M24,26.3c-5,0-9.1-4.1-9.1-9.1S19,8.1,24,8.1s9.1,4.1,9.1,9.1S29,26.3,24,26.3z M24,10.1   c-3.9,0-7.1,3.2-7.1,7.1c0,3.9,3.2,7.1,7.1,7.1s7.1-3.2,7.1-7.1C31.1,13.3,27.9,10.1,24,10.1z"/>
  </g>
</svg>
